<svg width="113" height="38" viewBox="0 0 113 38" fill="none" xmlns="http://www.w3.org/2000/svg">
<rect width="113" height="38" rx="19" fill="white" fill-opacity="0.1"/>
<path d="M25.4608 24V14.2H26.9448V22.824H31.3968V24H25.4608ZM35.8852 24.168C35.2039 24.168 34.5972 24.0187 34.0652 23.72C33.5426 23.412 33.1319 22.9873 32.8332 22.446C32.5346 21.9047 32.3852 21.2747 32.3852 20.556C32.3852 19.828 32.5299 19.1887 32.8192 18.638C33.1179 18.0873 33.5286 17.658 34.0512 17.35C34.5832 17.042 35.1992 16.888 35.8992 16.888C36.5806 16.888 37.1732 17.042 37.6772 17.35C38.1812 17.6487 38.5732 18.05 38.8532 18.554C39.1332 19.058 39.2732 19.6133 39.2732 20.22C39.2732 20.3133 39.2686 20.416 39.2592 20.528C39.2592 20.6307 39.2546 20.7473 39.2452 20.878H33.8412C33.8879 21.55 34.1072 22.0633 34.4992 22.418C34.9006 22.7633 35.3626 22.936 35.8852 22.936C36.3052 22.936 36.6552 22.8427 36.9352 22.656C37.2246 22.46 37.4392 22.1987 37.5792 21.872H39.0632C38.8766 22.5253 38.5032 23.0713 37.9432 23.51C37.3926 23.9487 36.7066 24.168 35.8852 24.168ZM35.8852 18.106C35.3906 18.106 34.9519 18.2553 34.5692 18.554C34.1866 18.8433 33.9532 19.282 33.8692 19.87H37.7892C37.7612 19.3287 37.5699 18.8993 37.2152 18.582C36.8606 18.2647 36.4172 18.106 35.8852 18.106ZM43.5473 24C42.8659 24 42.3246 23.8367 41.9233 23.51C41.5219 23.174 41.3213 22.5813 41.3213 21.732V18.302H40.1313V17.056H41.3213L41.5033 15.292H42.8053V17.056H44.7653V18.302H42.8053V21.732C42.8053 22.1147 42.8846 22.3807 43.0433 22.53C43.2113 22.67 43.4959 22.74 43.8973 22.74H44.6953V24H43.5473ZM45.8754 17.49L46.6594 14.2H48.2694L46.9114 17.49H45.8754ZM51.7608 24.168C50.8834 24.168 50.1601 23.9533 49.5908 23.524C49.0214 23.0947 48.6948 22.5253 48.6108 21.816H50.1088C50.1834 22.1333 50.3608 22.4087 50.6408 22.642C50.9208 22.866 51.2894 22.978 51.7468 22.978C52.1948 22.978 52.5214 22.8847 52.7268 22.698C52.9321 22.5113 53.0348 22.2967 53.0348 22.054C53.0348 21.6993 52.8901 21.4613 52.6008 21.34C52.3208 21.2093 51.9288 21.0927 51.4248 20.99C51.0328 20.906 50.6408 20.794 50.2488 20.654C49.8661 20.514 49.5441 20.318 49.2828 20.066C49.0308 19.8047 48.9048 19.4547 48.9048 19.016C48.9048 18.4093 49.1381 17.9053 49.6048 17.504C50.0714 17.0933 50.7248 16.888 51.5648 16.888C52.3394 16.888 52.9648 17.0747 53.4408 17.448C53.9261 17.8213 54.2108 18.3487 54.2948 19.03H52.8668C52.8201 18.7313 52.6801 18.498 52.4468 18.33C52.2228 18.162 51.9194 18.078 51.5368 18.078C51.1634 18.078 50.8741 18.1573 50.6688 18.316C50.4634 18.4653 50.3608 18.6613 50.3608 18.904C50.3608 19.1467 50.5008 19.338 50.7808 19.478C51.0701 19.618 51.4481 19.744 51.9148 19.856C52.3814 19.9587 52.8108 20.08 53.2028 20.22C53.6041 20.3507 53.9261 20.5467 54.1688 20.808C54.4114 21.0693 54.5328 21.452 54.5328 21.956C54.5421 22.5907 54.2948 23.118 53.7908 23.538C53.2961 23.958 52.6194 24.168 51.7608 24.168ZM62.9702 24.168C62.2889 24.168 61.6775 24.014 61.1362 23.706C60.6042 23.398 60.1842 22.9733 59.8762 22.432C59.5775 21.8813 59.4282 21.2467 59.4282 20.528C59.4282 19.8093 59.5775 19.1793 59.8762 18.638C60.1842 18.0873 60.6042 17.658 61.1362 17.35C61.6775 17.042 62.2889 16.888 62.9702 16.888C63.8289 16.888 64.5475 17.112 65.1262 17.56C65.7142 18.008 66.0922 18.6147 66.2602 19.38H64.7062C64.6129 18.9973 64.4075 18.6987 64.0902 18.484C63.7729 18.2693 63.3995 18.162 62.9702 18.162C62.6062 18.162 62.2702 18.2553 61.9622 18.442C61.6542 18.6193 61.4069 18.8853 61.2202 19.24C61.0335 19.5853 60.9402 20.0147 60.9402 20.528C60.9402 21.0413 61.0335 21.4753 61.2202 21.83C61.4069 22.1753 61.6542 22.4413 61.9622 22.628C62.2702 22.8147 62.6062 22.908 62.9702 22.908C63.3995 22.908 63.7729 22.8007 64.0902 22.586C64.4075 22.3713 64.6129 22.068 64.7062 21.676H66.2602C66.1015 22.4227 65.7282 23.0247 65.1402 23.482C64.5522 23.9393 63.8289 24.168 62.9702 24.168ZM67.8696 24V13.92H69.3536V18.176C69.587 17.7747 69.909 17.462 70.3196 17.238C70.7396 17.0047 71.2016 16.888 71.7056 16.888C72.5363 16.888 73.1896 17.1493 73.6656 17.672C74.1416 18.1947 74.3796 18.974 74.3796 20.01V24H72.9096V20.164C72.9096 18.82 72.373 18.148 71.2996 18.148C70.7396 18.148 70.273 18.344 69.8996 18.736C69.5356 19.128 69.3536 19.688 69.3536 20.416V24H67.8696ZM78.4795 24.168C77.8915 24.168 77.4061 24.07 77.0235 23.874C76.6408 23.678 76.3561 23.4213 76.1695 23.104C75.9828 22.7773 75.8895 22.4227 75.8895 22.04C75.8895 21.368 76.1508 20.836 76.6735 20.444C77.1961 20.052 77.9428 19.856 78.9135 19.856H80.7335V19.73C80.7335 19.1887 80.5841 18.7827 80.2855 18.512C79.9961 18.2413 79.6181 18.106 79.1515 18.106C78.7408 18.106 78.3815 18.2087 78.0735 18.414C77.7748 18.61 77.5928 18.904 77.5275 19.296H76.0435C76.0901 18.792 76.2581 18.3627 76.5475 18.008C76.8461 17.644 77.2195 17.3687 77.6675 17.182C78.1248 16.986 78.6241 16.888 79.1655 16.888C80.1361 16.888 80.8875 17.1447 81.4195 17.658C81.9515 18.162 82.2175 18.8527 82.2175 19.73V24H80.9295L80.8035 22.81C80.6075 23.1927 80.3228 23.5147 79.9495 23.776C79.5761 24.0373 79.0861 24.168 78.4795 24.168ZM78.7735 22.964C79.1748 22.964 79.5108 22.8707 79.7815 22.684C80.0615 22.488 80.2761 22.2313 80.4255 21.914C80.5841 21.5967 80.6821 21.2467 80.7195 20.864H79.0675C78.4795 20.864 78.0595 20.9667 77.8075 21.172C77.5648 21.3773 77.4435 21.634 77.4435 21.942C77.4435 22.2593 77.5601 22.5113 77.7935 22.698C78.0361 22.8753 78.3628 22.964 78.7735 22.964ZM86.723 24C86.0417 24 85.5004 23.8367 85.099 23.51C84.6977 23.174 84.497 22.5813 84.497 21.732V18.302H83.307V17.056H84.497L84.679 15.292H85.981V17.056H87.941V18.302H85.981V21.732C85.981 22.1147 86.0604 22.3807 86.219 22.53C86.387 22.67 86.6717 22.74 87.073 22.74H87.871V24H86.723Z" fill="white"/>
</svg>
