<svg width="264" height="262" viewBox="0 0 264 262" fill="none" xmlns="http://www.w3.org/2000/svg">
<rect width="264" height="262" rx="24" fill="#141A25"/>
<path d="M70.1474 204V191.4H77.9414V192.642H71.6594V197.034H77.4014V198.258H71.6594V202.758H77.9414V204H70.1474ZM83.1876 204.216C82.4436 204.216 81.8256 204.09 81.3336 203.838C80.8416 203.586 80.4756 203.25 80.2356 202.83C79.9956 202.41 79.8756 201.954 79.8756 201.462C79.8756 200.55 80.2236 199.848 80.9196 199.356C81.6156 198.864 82.5636 198.618 83.7636 198.618H86.1756V198.51C86.1756 197.73 85.9716 197.142 85.5636 196.746C85.1556 196.338 84.6096 196.134 83.9256 196.134C83.3376 196.134 82.8276 196.284 82.3956 196.584C81.9756 196.872 81.7116 197.298 81.6036 197.862H80.0556C80.1156 197.214 80.3316 196.668 80.7036 196.224C81.0876 195.78 81.5616 195.444 82.1256 195.216C82.6896 194.976 83.2896 194.856 83.9256 194.856C85.1736 194.856 86.1096 195.192 86.7336 195.864C87.3696 196.524 87.6876 197.406 87.6876 198.51V204H86.3376L86.2476 202.398C85.9956 202.902 85.6236 203.334 85.1316 203.694C84.6516 204.042 84.0036 204.216 83.1876 204.216ZM83.4216 202.938C83.9976 202.938 84.4896 202.788 84.8976 202.488C85.3176 202.188 85.6356 201.798 85.8516 201.318C86.0676 200.838 86.1756 200.334 86.1756 199.806V199.788H83.8896C83.0016 199.788 82.3716 199.944 81.9996 200.256C81.6396 200.556 81.4596 200.934 81.4596 201.39C81.4596 201.858 81.6276 202.236 81.9636 202.524C82.3116 202.8 82.7976 202.938 83.4216 202.938ZM93.3759 204.216C92.3079 204.216 91.4199 203.946 90.7119 203.406C90.0039 202.866 89.5899 202.134 89.4699 201.21H91.0179C91.1139 201.678 91.3599 202.086 91.7559 202.434C92.1639 202.77 92.7099 202.938 93.3939 202.938C94.0299 202.938 94.4979 202.806 94.7979 202.542C95.0979 202.266 95.2479 201.942 95.2479 201.57C95.2479 201.03 95.0499 200.67 94.6539 200.49C94.2699 200.31 93.7239 200.148 93.0159 200.004C92.5359 199.908 92.0559 199.77 91.5759 199.59C91.0959 199.41 90.6939 199.158 90.3699 198.834C90.0459 198.498 89.8839 198.06 89.8839 197.52C89.8839 196.74 90.1719 196.104 90.7479 195.612C91.3359 195.108 92.1279 194.856 93.1239 194.856C94.0719 194.856 94.8459 195.096 95.4459 195.576C96.0579 196.044 96.4119 196.716 96.5079 197.592H95.0139C94.9539 197.136 94.7559 196.782 94.4199 196.53C94.0959 196.266 93.6579 196.134 93.1059 196.134C92.5659 196.134 92.1459 196.248 91.8459 196.476C91.5579 196.704 91.4139 197.004 91.4139 197.376C91.4139 197.736 91.5999 198.018 91.9719 198.222C92.3559 198.426 92.8719 198.6 93.5199 198.744C94.0719 198.864 94.5939 199.014 95.0859 199.194C95.5899 199.362 95.9979 199.62 96.3099 199.968C96.6339 200.304 96.7959 200.796 96.7959 201.444C96.8079 202.248 96.5019 202.914 95.8779 203.442C95.2659 203.958 94.4319 204.216 93.3759 204.216ZM99.5411 207.96L101.755 203.136H101.233L97.6871 195.072H99.3251L102.277 202.02L105.409 195.072H106.975L101.125 207.96H99.5411ZM117.403 204.216C116.563 204.216 115.807 204.024 115.135 203.64C114.463 203.256 113.929 202.716 113.533 202.02C113.149 201.312 112.957 200.484 112.957 199.536C112.957 198.588 113.155 197.766 113.551 197.07C113.947 196.362 114.481 195.816 115.153 195.432C115.837 195.048 116.599 194.856 117.439 194.856C118.279 194.856 119.035 195.048 119.707 195.432C120.379 195.816 120.907 196.362 121.291 197.07C121.687 197.766 121.885 198.588 121.885 199.536C121.885 200.484 121.687 201.312 121.291 202.02C120.895 202.716 120.355 203.256 119.671 203.64C118.999 204.024 118.243 204.216 117.403 204.216ZM117.403 202.92C117.919 202.92 118.399 202.794 118.843 202.542C119.287 202.29 119.647 201.912 119.923 201.408C120.199 200.904 120.337 200.28 120.337 199.536C120.337 198.792 120.199 198.168 119.923 197.664C119.659 197.16 119.305 196.782 118.861 196.53C118.417 196.278 117.943 196.152 117.439 196.152C116.923 196.152 116.443 196.278 115.999 196.53C115.555 196.782 115.195 197.16 114.919 197.664C114.643 198.168 114.505 198.792 114.505 199.536C114.505 200.28 114.643 200.904 114.919 201.408C115.195 201.912 115.549 202.29 115.981 202.542C116.425 202.794 116.899 202.92 117.403 202.92ZM123.987 204V195.072H125.355L125.445 196.674C125.733 196.11 126.147 195.666 126.687 195.342C127.227 195.018 127.839 194.856 128.523 194.856C129.579 194.856 130.419 195.18 131.043 195.828C131.679 196.464 131.997 197.448 131.997 198.78V204H130.485V198.942C130.485 197.082 129.717 196.152 128.181 196.152C127.413 196.152 126.771 196.434 126.255 196.998C125.751 197.55 125.499 198.342 125.499 199.374V204H123.987ZM138.302 204.216C137.45 204.216 136.694 204.024 136.034 203.64C135.374 203.244 134.852 202.698 134.468 202.002C134.096 201.306 133.91 200.484 133.91 199.536C133.91 198.6 134.096 197.784 134.468 197.088C134.84 196.38 135.356 195.834 136.016 195.45C136.688 195.054 137.462 194.856 138.338 194.856C139.202 194.856 139.946 195.054 140.57 195.45C141.206 195.834 141.692 196.344 142.028 196.98C142.364 197.616 142.532 198.3 142.532 199.032C142.532 199.164 142.526 199.296 142.514 199.428C142.514 199.56 142.514 199.71 142.514 199.878H135.404C135.44 200.562 135.596 201.132 135.872 201.588C136.16 202.032 136.514 202.368 136.934 202.596C137.366 202.824 137.822 202.938 138.302 202.938C138.926 202.938 139.448 202.794 139.868 202.506C140.288 202.218 140.594 201.828 140.786 201.336H142.28C142.04 202.164 141.578 202.854 140.894 203.406C140.222 203.946 139.358 204.216 138.302 204.216ZM138.302 196.134C137.582 196.134 136.94 196.356 136.376 196.8C135.824 197.232 135.506 197.868 135.422 198.708H141.038C141.002 197.904 140.726 197.274 140.21 196.818C139.694 196.362 139.058 196.134 138.302 196.134ZM144.356 199.41V198.132H151.484V199.41H144.356ZM157.868 204.216C157.016 204.216 156.248 204.024 155.564 203.64C154.892 203.244 154.358 202.698 153.962 202.002C153.578 201.294 153.386 200.472 153.386 199.536C153.386 198.6 153.578 197.784 153.962 197.088C154.358 196.38 154.892 195.834 155.564 195.45C156.248 195.054 157.016 194.856 157.868 194.856C158.924 194.856 159.812 195.132 160.532 195.684C161.264 196.236 161.726 196.974 161.918 197.898H160.37C160.25 197.346 159.956 196.92 159.488 196.62C159.02 196.308 158.474 196.152 157.85 196.152C157.346 196.152 156.872 196.278 156.428 196.53C155.984 196.782 155.624 197.16 155.348 197.664C155.072 198.168 154.934 198.792 154.934 199.536C154.934 200.28 155.072 200.904 155.348 201.408C155.624 201.912 155.984 202.296 156.428 202.56C156.872 202.812 157.346 202.938 157.85 202.938C158.474 202.938 159.02 202.788 159.488 202.488C159.956 202.176 160.25 201.738 160.37 201.174H161.918C161.738 202.074 161.282 202.806 160.55 203.37C159.818 203.934 158.924 204.216 157.868 204.216ZM164.03 204V191.04H165.542V204H164.03ZM168.938 193.092C168.638 193.092 168.386 192.996 168.182 192.804C167.99 192.6 167.894 192.348 167.894 192.048C167.894 191.76 167.99 191.52 168.182 191.328C168.386 191.136 168.638 191.04 168.938 191.04C169.226 191.04 169.472 191.136 169.676 191.328C169.88 191.52 169.982 191.76 169.982 192.048C169.982 192.348 169.88 192.6 169.676 192.804C169.472 192.996 169.226 193.092 168.938 193.092ZM168.182 204V195.072H169.694V204H168.182ZM176.431 204.216C175.579 204.216 174.811 204.024 174.127 203.64C173.455 203.244 172.921 202.698 172.525 202.002C172.141 201.294 171.949 200.472 171.949 199.536C171.949 198.6 172.141 197.784 172.525 197.088C172.921 196.38 173.455 195.834 174.127 195.45C174.811 195.054 175.579 194.856 176.431 194.856C177.487 194.856 178.375 195.132 179.095 195.684C179.827 196.236 180.289 196.974 180.481 197.898H178.933C178.813 197.346 178.519 196.92 178.051 196.62C177.583 196.308 177.037 196.152 176.413 196.152C175.909 196.152 175.435 196.278 174.991 196.53C174.547 196.782 174.187 197.16 173.911 197.664C173.635 198.168 173.497 198.792 173.497 199.536C173.497 200.28 173.635 200.904 173.911 201.408C174.187 201.912 174.547 202.296 174.991 202.56C175.435 202.812 175.909 202.938 176.413 202.938C177.037 202.938 177.583 202.788 178.051 202.488C178.519 202.176 178.813 201.738 178.933 201.174H180.481C180.301 202.074 179.845 202.806 179.113 203.37C178.381 203.934 177.487 204.216 176.431 204.216ZM182.593 204V191.04H184.105V198.834L187.759 195.072H189.613L185.653 199.104L190.117 204H188.191L184.105 199.374V204H182.593ZM72.3421 227.216C71.4901 227.216 70.7221 227.024 70.0381 226.64C69.3661 226.244 68.8321 225.698 68.4361 225.002C68.0521 224.294 67.8601 223.472 67.8601 222.536C67.8601 221.6 68.0521 220.784 68.4361 220.088C68.8321 219.38 69.3661 218.834 70.0381 218.45C70.7221 218.054 71.4901 217.856 72.3421 217.856C73.3981 217.856 74.2861 218.132 75.0061 218.684C75.7381 219.236 76.2001 219.974 76.3921 220.898H74.8441C74.7241 220.346 74.4301 219.92 73.9621 219.62C73.4941 219.308 72.9481 219.152 72.3241 219.152C71.8201 219.152 71.3461 219.278 70.9021 219.53C70.4581 219.782 70.0981 220.16 69.8221 220.664C69.5461 221.168 69.4081 221.792 69.4081 222.536C69.4081 223.28 69.5461 223.904 69.8221 224.408C70.0981 224.912 70.4581 225.296 70.9021 225.56C71.3461 225.812 71.8201 225.938 72.3241 225.938C72.9481 225.938 73.4941 225.788 73.9621 225.488C74.4301 225.176 74.7241 224.738 74.8441 224.174H76.3921C76.2121 225.074 75.7561 225.806 75.0241 226.37C74.2921 226.934 73.3981 227.216 72.3421 227.216ZM82.5717 227.216C81.7317 227.216 80.9757 227.024 80.3037 226.64C79.6317 226.256 79.0977 225.716 78.7017 225.02C78.3177 224.312 78.1257 223.484 78.1257 222.536C78.1257 221.588 78.3237 220.766 78.7197 220.07C79.1157 219.362 79.6497 218.816 80.3217 218.432C81.0057 218.048 81.7677 217.856 82.6077 217.856C83.4477 217.856 84.2037 218.048 84.8757 218.432C85.5477 218.816 86.0757 219.362 86.4597 220.07C86.8557 220.766 87.0537 221.588 87.0537 222.536C87.0537 223.484 86.8557 224.312 86.4597 225.02C86.0637 225.716 85.5237 226.256 84.8397 226.64C84.1677 227.024 83.4117 227.216 82.5717 227.216ZM82.5717 225.92C83.0877 225.92 83.5677 225.794 84.0117 225.542C84.4557 225.29 84.8157 224.912 85.0917 224.408C85.3677 223.904 85.5057 223.28 85.5057 222.536C85.5057 221.792 85.3677 221.168 85.0917 220.664C84.8277 220.16 84.4737 219.782 84.0297 219.53C83.5857 219.278 83.1117 219.152 82.6077 219.152C82.0917 219.152 81.6117 219.278 81.1677 219.53C80.7237 219.782 80.3637 220.16 80.0877 220.664C79.8117 221.168 79.6737 221.792 79.6737 222.536C79.6737 223.28 79.8117 223.904 80.0877 224.408C80.3637 224.912 80.7177 225.29 81.1497 225.542C81.5937 225.794 82.0677 225.92 82.5717 225.92ZM89.1561 227V218.072H90.5241L90.6321 219.368C90.9201 218.888 91.3041 218.516 91.7841 218.252C92.2641 217.988 92.8041 217.856 93.4041 217.856C94.1121 217.856 94.7181 218 95.2221 218.288C95.7381 218.576 96.1341 219.014 96.4101 219.602C96.7221 219.062 97.1481 218.636 97.6881 218.324C98.2401 218.012 98.8341 217.856 99.4701 217.856C100.538 217.856 101.39 218.18 102.026 218.828C102.662 219.464 102.98 220.448 102.98 221.78V227H101.486V221.942C101.486 221.018 101.3 220.322 100.928 219.854C100.556 219.386 100.022 219.152 99.3261 219.152C98.6061 219.152 98.0061 219.434 97.5261 219.998C97.0581 220.55 96.8241 221.342 96.8241 222.374V227H95.3121V221.942C95.3121 221.018 95.1261 220.322 94.7541 219.854C94.3821 219.386 93.8481 219.152 93.1521 219.152C92.4441 219.152 91.8501 219.434 91.3701 219.998C90.9021 220.55 90.6681 221.342 90.6681 222.374V227H89.1561ZM105.258 227V218.072H106.626L106.734 219.368C107.022 218.888 107.406 218.516 107.886 218.252C108.366 217.988 108.906 217.856 109.506 217.856C110.214 217.856 110.82 218 111.324 218.288C111.84 218.576 112.236 219.014 112.512 219.602C112.824 219.062 113.25 218.636 113.79 218.324C114.342 218.012 114.936 217.856 115.572 217.856C116.64 217.856 117.492 218.18 118.128 218.828C118.764 219.464 119.082 220.448 119.082 221.78V227H117.588V221.942C117.588 221.018 117.402 220.322 117.03 219.854C116.658 219.386 116.124 219.152 115.428 219.152C114.708 219.152 114.108 219.434 113.628 219.998C113.16 220.55 112.926 221.342 112.926 222.374V227H111.414V221.942C111.414 221.018 111.228 220.322 110.856 219.854C110.484 219.386 109.95 219.152 109.254 219.152C108.546 219.152 107.952 219.434 107.472 219.998C107.004 220.55 106.77 221.342 106.77 222.374V227H105.258ZM124.617 227.216C123.561 227.216 122.721 226.898 122.097 226.262C121.473 225.614 121.161 224.624 121.161 223.292V218.072H122.673V223.13C122.673 224.99 123.435 225.92 124.959 225.92C125.739 225.92 126.381 225.644 126.885 225.092C127.401 224.528 127.659 223.73 127.659 222.698V218.072H129.171V227H127.803L127.695 225.398C127.419 225.962 127.005 226.406 126.453 226.73C125.913 227.054 125.301 227.216 124.617 227.216ZM131.66 227V218.072H133.028L133.118 219.674C133.406 219.11 133.82 218.666 134.36 218.342C134.9 218.018 135.512 217.856 136.196 217.856C137.252 217.856 138.092 218.18 138.716 218.828C139.352 219.464 139.67 220.448 139.67 221.78V227H138.158V221.942C138.158 220.082 137.39 219.152 135.854 219.152C135.086 219.152 134.444 219.434 133.928 219.998C133.424 220.55 133.172 221.342 133.172 222.374V227H131.66ZM142.879 216.092C142.579 216.092 142.327 215.996 142.123 215.804C141.931 215.6 141.835 215.348 141.835 215.048C141.835 214.76 141.931 214.52 142.123 214.328C142.327 214.136 142.579 214.04 142.879 214.04C143.167 214.04 143.413 214.136 143.617 214.328C143.821 214.52 143.923 214.76 143.923 215.048C143.923 215.348 143.821 215.6 143.617 215.804C143.413 215.996 143.167 216.092 142.879 216.092ZM142.123 227V218.072H143.635V227H142.123ZM150.371 227.216C149.519 227.216 148.751 227.024 148.067 226.64C147.395 226.244 146.861 225.698 146.465 225.002C146.081 224.294 145.889 223.472 145.889 222.536C145.889 221.6 146.081 220.784 146.465 220.088C146.861 219.38 147.395 218.834 148.067 218.45C148.751 218.054 149.519 217.856 150.371 217.856C151.427 217.856 152.315 218.132 153.035 218.684C153.767 219.236 154.229 219.974 154.421 220.898H152.873C152.753 220.346 152.459 219.92 151.991 219.62C151.523 219.308 150.977 219.152 150.353 219.152C149.849 219.152 149.375 219.278 148.931 219.53C148.487 219.782 148.127 220.16 147.851 220.664C147.575 221.168 147.437 221.792 147.437 222.536C147.437 223.28 147.575 223.904 147.851 224.408C148.127 224.912 148.487 225.296 148.931 225.56C149.375 225.812 149.849 225.938 150.353 225.938C150.977 225.938 151.523 225.788 151.991 225.488C152.459 225.176 152.753 224.738 152.873 224.174H154.421C154.241 225.074 153.785 225.806 153.053 226.37C152.321 226.934 151.427 227.216 150.371 227.216ZM159.503 227.216C158.759 227.216 158.141 227.09 157.649 226.838C157.157 226.586 156.791 226.25 156.551 225.83C156.311 225.41 156.191 224.954 156.191 224.462C156.191 223.55 156.539 222.848 157.235 222.356C157.931 221.864 158.879 221.618 160.079 221.618H162.491V221.51C162.491 220.73 162.287 220.142 161.879 219.746C161.471 219.338 160.925 219.134 160.241 219.134C159.653 219.134 159.143 219.284 158.711 219.584C158.291 219.872 158.027 220.298 157.919 220.862H156.371C156.431 220.214 156.647 219.668 157.019 219.224C157.403 218.78 157.877 218.444 158.441 218.216C159.005 217.976 159.605 217.856 160.241 217.856C161.489 217.856 162.425 218.192 163.049 218.864C163.685 219.524 164.003 220.406 164.003 221.51V227H162.653L162.563 225.398C162.311 225.902 161.939 226.334 161.447 226.694C160.967 227.042 160.319 227.216 159.503 227.216ZM159.737 225.938C160.313 225.938 160.805 225.788 161.213 225.488C161.633 225.188 161.951 224.798 162.167 224.318C162.383 223.838 162.491 223.334 162.491 222.806V222.788H160.205C159.317 222.788 158.687 222.944 158.315 223.256C157.955 223.556 157.775 223.934 157.775 224.39C157.775 224.858 157.943 225.236 158.279 225.524C158.627 225.8 159.113 225.938 159.737 225.938ZM169.553 227C168.737 227 168.095 226.802 167.627 226.406C167.159 226.01 166.925 225.296 166.925 224.264V219.35H165.377V218.072H166.925L167.123 215.93H168.437V218.072H171.065V219.35H168.437V224.264C168.437 224.828 168.551 225.212 168.779 225.416C169.007 225.608 169.409 225.704 169.985 225.704H170.921V227H169.553ZM173.904 216.092C173.604 216.092 173.352 215.996 173.148 215.804C172.956 215.6 172.86 215.348 172.86 215.048C172.86 214.76 172.956 214.52 173.148 214.328C173.352 214.136 173.604 214.04 173.904 214.04C174.192 214.04 174.438 214.136 174.642 214.328C174.846 214.52 174.948 214.76 174.948 215.048C174.948 215.348 174.846 215.6 174.642 215.804C174.438 215.996 174.192 216.092 173.904 216.092ZM173.148 227V218.072H174.66V227H173.148ZM181.361 227.216C180.521 227.216 179.765 227.024 179.093 226.64C178.421 226.256 177.887 225.716 177.491 225.02C177.107 224.312 176.915 223.484 176.915 222.536C176.915 221.588 177.113 220.766 177.509 220.07C177.905 219.362 178.439 218.816 179.111 218.432C179.795 218.048 180.557 217.856 181.397 217.856C182.237 217.856 182.993 218.048 183.665 218.432C184.337 218.816 184.865 219.362 185.249 220.07C185.645 220.766 185.843 221.588 185.843 222.536C185.843 223.484 185.645 224.312 185.249 225.02C184.853 225.716 184.313 226.256 183.629 226.64C182.957 227.024 182.201 227.216 181.361 227.216ZM181.361 225.92C181.877 225.92 182.357 225.794 182.801 225.542C183.245 225.29 183.605 224.912 183.881 224.408C184.157 223.904 184.295 223.28 184.295 222.536C184.295 221.792 184.157 221.168 183.881 220.664C183.617 220.16 183.263 219.782 182.819 219.53C182.375 219.278 181.901 219.152 181.397 219.152C180.881 219.152 180.401 219.278 179.957 219.53C179.513 219.782 179.153 220.16 178.877 220.664C178.601 221.168 178.463 221.792 178.463 222.536C178.463 223.28 178.601 223.904 178.877 224.408C179.153 224.912 179.507 225.29 179.939 225.542C180.383 225.794 180.857 225.92 181.361 225.92ZM187.945 227V218.072H189.313L189.403 219.674C189.691 219.11 190.105 218.666 190.645 218.342C191.185 218.018 191.797 217.856 192.481 217.856C193.537 217.856 194.377 218.18 195.001 218.828C195.637 219.464 195.955 220.448 195.955 221.78V227H194.443V221.942C194.443 220.082 193.675 219.152 192.139 219.152C191.371 219.152 190.729 219.434 190.213 219.998C189.709 220.55 189.457 221.342 189.457 222.374V227H187.945Z" fill="#7E8597"/>
<rect x="98" y="146" width="67" height="28" rx="14" fill="#FA0369"/>
<path d="M116.273 165.168C115.554 165.168 114.924 165.042 114.383 164.79C113.842 164.538 113.417 164.179 113.109 163.712C112.81 163.245 112.656 162.69 112.647 162.046H114.215C114.224 162.569 114.406 163.012 114.761 163.376C115.116 163.74 115.615 163.922 116.259 163.922C116.828 163.922 117.272 163.787 117.589 163.516C117.916 163.236 118.079 162.881 118.079 162.452C118.079 162.107 118 161.827 117.841 161.612C117.692 161.397 117.482 161.22 117.211 161.08C116.95 160.94 116.646 160.814 116.301 160.702C115.956 160.59 115.592 160.469 115.209 160.338C114.453 160.086 113.884 159.759 113.501 159.358C113.128 158.957 112.941 158.429 112.941 157.776C112.932 157.225 113.058 156.745 113.319 156.334C113.59 155.923 113.963 155.606 114.439 155.382C114.924 155.149 115.489 155.032 116.133 155.032C116.768 155.032 117.323 155.149 117.799 155.382C118.284 155.615 118.662 155.942 118.933 156.362C119.204 156.773 119.344 157.253 119.353 157.804H117.785C117.785 157.552 117.72 157.314 117.589 157.09C117.458 156.857 117.267 156.665 117.015 156.516C116.763 156.367 116.455 156.292 116.091 156.292C115.624 156.283 115.237 156.399 114.929 156.642C114.63 156.885 114.481 157.221 114.481 157.65C114.481 158.033 114.593 158.327 114.817 158.532C115.041 158.737 115.349 158.91 115.741 159.05C116.133 159.181 116.581 159.335 117.085 159.512C117.57 159.671 118.004 159.862 118.387 160.086C118.77 160.31 119.073 160.604 119.297 160.968C119.53 161.332 119.647 161.794 119.647 162.354C119.647 162.849 119.521 163.311 119.269 163.74C119.017 164.16 118.639 164.505 118.135 164.776C117.631 165.037 117.01 165.168 116.273 165.168ZM124.125 165C123.444 165 122.903 164.837 122.501 164.51C122.1 164.174 121.899 163.581 121.899 162.732V159.302H120.709V158.056H121.899L122.081 156.292H123.383V158.056H125.343V159.302H123.383V162.732C123.383 163.115 123.463 163.381 123.621 163.53C123.789 163.67 124.074 163.74 124.475 163.74H125.273V165H124.125ZM129.944 165.168C129.262 165.168 128.656 165.019 128.124 164.72C127.601 164.412 127.19 163.987 126.892 163.446C126.593 162.905 126.444 162.275 126.444 161.556C126.444 160.828 126.588 160.189 126.878 159.638C127.176 159.087 127.587 158.658 128.11 158.35C128.642 158.042 129.258 157.888 129.958 157.888C130.639 157.888 131.232 158.042 131.736 158.35C132.24 158.649 132.632 159.05 132.912 159.554C133.192 160.058 133.332 160.613 133.332 161.22C133.332 161.313 133.327 161.416 133.318 161.528C133.318 161.631 133.313 161.747 133.304 161.878H127.9C127.946 162.55 128.166 163.063 128.558 163.418C128.959 163.763 129.421 163.936 129.944 163.936C130.364 163.936 130.714 163.843 130.994 163.656C131.283 163.46 131.498 163.199 131.638 162.872H133.122C132.935 163.525 132.562 164.071 132.002 164.51C131.451 164.949 130.765 165.168 129.944 165.168ZM129.944 159.106C129.449 159.106 129.01 159.255 128.628 159.554C128.245 159.843 128.012 160.282 127.928 160.87H131.848C131.82 160.329 131.628 159.899 131.274 159.582C130.919 159.265 130.476 159.106 129.944 159.106ZM134.872 168.08V158.056H136.202L136.356 159.134C136.58 158.807 136.888 158.518 137.28 158.266C137.672 158.014 138.176 157.888 138.792 157.888C139.464 157.888 140.056 158.047 140.57 158.364C141.083 158.681 141.484 159.115 141.774 159.666C142.072 160.217 142.222 160.842 142.222 161.542C142.222 162.242 142.072 162.867 141.774 163.418C141.484 163.959 141.083 164.389 140.57 164.706C140.056 165.014 139.459 165.168 138.778 165.168C138.236 165.168 137.756 165.061 137.336 164.846C136.925 164.631 136.598 164.328 136.356 163.936V168.08H134.872ZM138.526 163.88C139.16 163.88 139.683 163.665 140.094 163.236C140.504 162.797 140.71 162.228 140.71 161.528C140.71 161.071 140.616 160.665 140.43 160.31C140.243 159.955 139.986 159.68 139.66 159.484C139.333 159.279 138.955 159.176 138.526 159.176C137.891 159.176 137.368 159.395 136.958 159.834C136.556 160.273 136.356 160.837 136.356 161.528C136.356 162.228 136.556 162.797 136.958 163.236C137.368 163.665 137.891 163.88 138.526 163.88ZM148.418 165V156.88L146.836 157.244V156.152L149.006 155.2H149.958V165H148.418Z" fill="white"/>
<path d="M132 58V75" stroke="white" stroke-width="2" stroke-miterlimit="10" stroke-linecap="round" stroke-linejoin="round"/>
<path d="M117 75H147" stroke="white" stroke-width="2" stroke-miterlimit="10" stroke-linecap="round" stroke-linejoin="round"/>
<path d="M132 102C128.022 102 124.206 100.42 121.393 97.6066C118.58 94.7936 117 90.9782 117 87V73C117 69.0218 118.58 65.2064 121.393 62.3934C124.206 59.5804 128.022 58 132 58V58C135.978 58 139.794 59.5804 142.607 62.3934C145.42 65.2064 147 69.0218 147 73V87C147 90.9782 145.42 94.7936 142.607 97.6066C139.794 100.42 135.978 102 132 102Z" stroke="white" stroke-width="2" stroke-miterlimit="10" stroke-linecap="round" stroke-linejoin="round"/>
</svg>
