<svg width="264" height="262" viewBox="0 0 264 262" fill="none" xmlns="http://www.w3.org/2000/svg">
<rect width="264" height="262" rx="24" fill="#141A25"/>
<rect x="96" y="146" width="71" height="28" rx="14" fill="#FA0369"/>
<path d="M114.4 165.168C113.681 165.168 113.051 165.042 112.51 164.79C111.969 164.538 111.544 164.179 111.236 163.712C110.937 163.245 110.783 162.69 110.774 162.046H112.342C112.351 162.569 112.533 163.012 112.888 163.376C113.243 163.74 113.742 163.922 114.386 163.922C114.955 163.922 115.399 163.787 115.716 163.516C116.043 163.236 116.206 162.881 116.206 162.452C116.206 162.107 116.127 161.827 115.968 161.612C115.819 161.397 115.609 161.22 115.338 161.08C115.077 160.94 114.773 160.814 114.428 160.702C114.083 160.59 113.719 160.469 113.336 160.338C112.58 160.086 112.011 159.759 111.628 159.358C111.255 158.957 111.068 158.429 111.068 157.776C111.059 157.225 111.185 156.745 111.446 156.334C111.717 155.923 112.09 155.606 112.566 155.382C113.051 155.149 113.616 155.032 114.26 155.032C114.895 155.032 115.45 155.149 115.926 155.382C116.411 155.615 116.789 155.942 117.06 156.362C117.331 156.773 117.471 157.253 117.48 157.804H115.912C115.912 157.552 115.847 157.314 115.716 157.09C115.585 156.857 115.394 156.665 115.142 156.516C114.89 156.367 114.582 156.292 114.218 156.292C113.751 156.283 113.364 156.399 113.056 156.642C112.757 156.885 112.608 157.221 112.608 157.65C112.608 158.033 112.72 158.327 112.944 158.532C113.168 158.737 113.476 158.91 113.868 159.05C114.26 159.181 114.708 159.335 115.212 159.512C115.697 159.671 116.131 159.862 116.514 160.086C116.897 160.31 117.2 160.604 117.424 160.968C117.657 161.332 117.774 161.794 117.774 162.354C117.774 162.849 117.648 163.311 117.396 163.74C117.144 164.16 116.766 164.505 116.262 164.776C115.758 165.037 115.137 165.168 114.4 165.168ZM122.252 165C121.571 165 121.03 164.837 120.628 164.51C120.227 164.174 120.026 163.581 120.026 162.732V159.302H118.836V158.056H120.026L120.208 156.292H121.51V158.056H123.47V159.302H121.51V162.732C121.51 163.115 121.59 163.381 121.748 163.53C121.916 163.67 122.201 163.74 122.602 163.74H123.4V165H122.252ZM128.071 165.168C127.389 165.168 126.783 165.019 126.251 164.72C125.728 164.412 125.317 163.987 125.019 163.446C124.72 162.905 124.571 162.275 124.571 161.556C124.571 160.828 124.715 160.189 125.005 159.638C125.303 159.087 125.714 158.658 126.237 158.35C126.769 158.042 127.385 157.888 128.085 157.888C128.766 157.888 129.359 158.042 129.863 158.35C130.367 158.649 130.759 159.05 131.039 159.554C131.319 160.058 131.459 160.613 131.459 161.22C131.459 161.313 131.454 161.416 131.445 161.528C131.445 161.631 131.44 161.747 131.431 161.878H126.027C126.073 162.55 126.293 163.063 126.685 163.418C127.086 163.763 127.548 163.936 128.071 163.936C128.491 163.936 128.841 163.843 129.121 163.656C129.41 163.46 129.625 163.199 129.765 162.872H131.249C131.062 163.525 130.689 164.071 130.129 164.51C129.578 164.949 128.892 165.168 128.071 165.168ZM128.071 159.106C127.576 159.106 127.137 159.255 126.755 159.554C126.372 159.843 126.139 160.282 126.055 160.87H129.975C129.947 160.329 129.755 159.899 129.401 159.582C129.046 159.265 128.603 159.106 128.071 159.106ZM132.999 168.08V158.056H134.329L134.483 159.134C134.707 158.807 135.015 158.518 135.407 158.266C135.799 158.014 136.303 157.888 136.919 157.888C137.591 157.888 138.183 158.047 138.697 158.364C139.21 158.681 139.611 159.115 139.901 159.666C140.199 160.217 140.349 160.842 140.349 161.542C140.349 162.242 140.199 162.867 139.901 163.418C139.611 163.959 139.21 164.389 138.697 164.706C138.183 165.014 137.586 165.168 136.905 165.168C136.363 165.168 135.883 165.061 135.463 164.846C135.052 164.631 134.725 164.328 134.483 163.936V168.08H132.999ZM136.653 163.88C137.287 163.88 137.81 163.665 138.221 163.236C138.631 162.797 138.837 162.228 138.837 161.528C138.837 161.071 138.743 160.665 138.557 160.31C138.37 159.955 138.113 159.68 137.787 159.484C137.46 159.279 137.082 159.176 136.653 159.176C136.018 159.176 135.495 159.395 135.085 159.834C134.683 160.273 134.483 160.837 134.483 161.528C134.483 162.228 134.683 162.797 135.085 163.236C135.495 163.665 136.018 163.88 136.653 163.88ZM148.673 165.168C148.038 165.168 147.46 165.056 146.937 164.832C146.424 164.599 146.013 164.249 145.705 163.782C145.397 163.315 145.234 162.732 145.215 162.032H146.685C146.704 162.555 146.881 162.998 147.217 163.362C147.562 163.717 148.048 163.894 148.673 163.894C149.27 163.894 149.728 163.731 150.045 163.404C150.362 163.068 150.521 162.653 150.521 162.158C150.521 161.561 150.306 161.117 149.877 160.828C149.457 160.539 148.939 160.394 148.323 160.394H147.595V159.162H148.337C148.888 159.162 149.331 159.031 149.667 158.77C150.012 158.509 150.185 158.14 150.185 157.664C150.185 157.263 150.05 156.936 149.779 156.684C149.518 156.432 149.144 156.306 148.659 156.306C148.155 156.306 147.758 156.455 147.469 156.754C147.18 157.043 147.021 157.407 146.993 157.846H145.523C145.542 157.277 145.682 156.782 145.943 156.362C146.214 155.942 146.582 155.615 147.049 155.382C147.516 155.149 148.052 155.032 148.659 155.032C149.312 155.032 149.858 155.149 150.297 155.382C150.745 155.606 151.081 155.914 151.305 156.306C151.538 156.689 151.655 157.109 151.655 157.566C151.655 158.089 151.51 158.546 151.221 158.938C150.932 159.33 150.544 159.591 150.059 159.722C150.619 159.843 151.081 160.119 151.445 160.548C151.809 160.968 151.991 161.514 151.991 162.186C151.991 162.727 151.865 163.227 151.613 163.684C151.361 164.132 150.988 164.491 150.493 164.762C149.998 165.033 149.392 165.168 148.673 165.168Z" fill="white"/>
<path d="M73.5146 204V191.4H77.5826C78.5666 191.4 79.3706 191.562 79.9946 191.886C80.6186 192.21 81.0806 192.654 81.3806 193.218C81.6806 193.782 81.8306 194.406 81.8306 195.09C81.8306 195.882 81.6146 196.596 81.1826 197.232C80.7626 197.868 80.1026 198.318 79.2026 198.582L81.9566 204H80.1746L77.6186 198.798H77.5106H75.0266V204H73.5146ZM75.0266 197.61H77.4746C78.4466 197.61 79.1546 197.376 79.5986 196.908C80.0426 196.44 80.2646 195.84 80.2646 195.108C80.2646 194.364 80.0426 193.776 79.5986 193.344C79.1666 192.9 78.4526 192.678 77.4566 192.678H75.0266V197.61ZM86.8184 204.216C86.0744 204.216 85.4564 204.09 84.9644 203.838C84.4724 203.586 84.1064 203.25 83.8664 202.83C83.6264 202.41 83.5064 201.954 83.5064 201.462C83.5064 200.55 83.8544 199.848 84.5504 199.356C85.2464 198.864 86.1944 198.618 87.3944 198.618H89.8064V198.51C89.8064 197.73 89.6024 197.142 89.1944 196.746C88.7864 196.338 88.2404 196.134 87.5564 196.134C86.9684 196.134 86.4584 196.284 86.0264 196.584C85.6064 196.872 85.3424 197.298 85.2344 197.862H83.6864C83.7464 197.214 83.9624 196.668 84.3344 196.224C84.7184 195.78 85.1924 195.444 85.7564 195.216C86.3204 194.976 86.9204 194.856 87.5564 194.856C88.8044 194.856 89.7404 195.192 90.3644 195.864C91.0004 196.524 91.3184 197.406 91.3184 198.51V204H89.9684L89.8784 202.398C89.6264 202.902 89.2544 203.334 88.7624 203.694C88.2824 204.042 87.6344 204.216 86.8184 204.216ZM87.0524 202.938C87.6284 202.938 88.1204 202.788 88.5284 202.488C88.9484 202.188 89.2664 201.798 89.4824 201.318C89.6984 200.838 89.8064 200.334 89.8064 199.806V199.788H87.5204C86.6324 199.788 86.0024 199.944 85.6304 200.256C85.2704 200.556 85.0904 200.934 85.0904 201.39C85.0904 201.858 85.2584 202.236 85.5944 202.524C85.9424 202.8 86.4284 202.938 87.0524 202.938ZM93.5867 207.96V195.072H94.9547L95.0987 196.548C95.3867 196.116 95.7947 195.726 96.3227 195.378C96.8627 195.03 97.5467 194.856 98.3747 194.856C99.2627 194.856 100.037 195.06 100.697 195.468C101.357 195.876 101.867 196.434 102.227 197.142C102.599 197.85 102.785 198.654 102.785 199.554C102.785 200.454 102.599 201.258 102.227 201.966C101.867 202.662 101.351 203.214 100.679 203.622C100.019 204.018 99.2447 204.216 98.3567 204.216C97.6247 204.216 96.9707 204.066 96.3947 203.766C95.8307 203.466 95.3987 203.046 95.0987 202.506V207.96H93.5867ZM98.1947 202.902C98.7947 202.902 99.3227 202.764 99.7787 202.488C100.235 202.2 100.595 201.804 100.859 201.3C101.123 200.796 101.255 200.208 101.255 199.536C101.255 198.864 101.123 198.276 100.859 197.772C100.595 197.268 100.235 196.878 99.7787 196.602C99.3227 196.314 98.7947 196.17 98.1947 196.17C97.5947 196.17 97.0667 196.314 96.6107 196.602C96.1547 196.878 95.7947 197.268 95.5307 197.772C95.2667 198.276 95.1347 198.864 95.1347 199.536C95.1347 200.208 95.2667 200.796 95.5307 201.3C95.7947 201.804 96.1547 202.2 96.6107 202.488C97.0667 202.764 97.5947 202.902 98.1947 202.902ZM105.807 193.092C105.507 193.092 105.255 192.996 105.051 192.804C104.859 192.6 104.763 192.348 104.763 192.048C104.763 191.76 104.859 191.52 105.051 191.328C105.255 191.136 105.507 191.04 105.807 191.04C106.095 191.04 106.341 191.136 106.545 191.328C106.749 191.52 106.851 191.76 106.851 192.048C106.851 192.348 106.749 192.6 106.545 192.804C106.341 192.996 106.095 193.092 105.807 193.092ZM105.051 204V195.072H106.563V204H105.051ZM113.246 204.216C112.358 204.216 111.578 204.012 110.906 203.604C110.246 203.196 109.73 202.638 109.358 201.93C108.998 201.222 108.818 200.418 108.818 199.518C108.818 198.618 109.004 197.82 109.376 197.124C109.748 196.416 110.264 195.864 110.924 195.468C111.584 195.06 112.364 194.856 113.264 194.856C113.996 194.856 114.644 195.006 115.208 195.306C115.772 195.606 116.21 196.026 116.522 196.566V191.04H118.034V204H116.666L116.522 202.524C116.234 202.956 115.82 203.346 115.28 203.694C114.74 204.042 114.062 204.216 113.246 204.216ZM113.408 202.902C114.008 202.902 114.536 202.764 114.992 202.488C115.46 202.2 115.82 201.804 116.072 201.3C116.336 200.796 116.468 200.208 116.468 199.536C116.468 198.864 116.336 198.276 116.072 197.772C115.82 197.268 115.46 196.878 114.992 196.602C114.536 196.314 114.008 196.17 113.408 196.17C112.82 196.17 112.292 196.314 111.824 196.602C111.368 196.878 111.008 197.268 110.744 197.772C110.492 198.276 110.366 198.864 110.366 199.536C110.366 200.208 110.492 200.796 110.744 201.3C111.008 201.804 111.368 202.2 111.824 202.488C112.292 202.764 112.82 202.902 113.408 202.902ZM125.353 204V191.4H129.223C131.443 191.4 133.075 191.964 134.119 193.092C135.175 194.22 135.703 195.768 135.703 197.736C135.703 199.668 135.175 201.198 134.119 202.326C133.075 203.442 131.443 204 129.223 204H125.353ZM126.865 202.74H129.187C130.411 202.74 131.383 202.542 132.103 202.146C132.835 201.738 133.357 201.162 133.669 200.418C133.981 199.662 134.137 198.768 134.137 197.736C134.137 196.68 133.981 195.774 133.669 195.018C133.357 194.262 132.835 193.68 132.103 193.272C131.383 192.864 130.411 192.66 129.187 192.66H126.865V202.74ZM141.81 204.216C140.958 204.216 140.202 204.024 139.542 203.64C138.882 203.244 138.36 202.698 137.976 202.002C137.604 201.306 137.418 200.484 137.418 199.536C137.418 198.6 137.604 197.784 137.976 197.088C138.348 196.38 138.864 195.834 139.524 195.45C140.196 195.054 140.97 194.856 141.846 194.856C142.71 194.856 143.454 195.054 144.078 195.45C144.714 195.834 145.2 196.344 145.536 196.98C145.872 197.616 146.04 198.3 146.04 199.032C146.04 199.164 146.034 199.296 146.022 199.428C146.022 199.56 146.022 199.71 146.022 199.878H138.912C138.948 200.562 139.104 201.132 139.38 201.588C139.668 202.032 140.022 202.368 140.442 202.596C140.874 202.824 141.33 202.938 141.81 202.938C142.434 202.938 142.956 202.794 143.376 202.506C143.796 202.218 144.102 201.828 144.294 201.336H145.788C145.548 202.164 145.086 202.854 144.402 203.406C143.73 203.946 142.866 204.216 141.81 204.216ZM141.81 196.134C141.09 196.134 140.448 196.356 139.884 196.8C139.332 197.232 139.014 197.868 138.93 198.708H144.546C144.51 197.904 144.234 197.274 143.718 196.818C143.202 196.362 142.566 196.134 141.81 196.134ZM148.044 204V191.04H149.556V204H148.044ZM152.952 193.092C152.652 193.092 152.4 192.996 152.196 192.804C152.004 192.6 151.908 192.348 151.908 192.048C151.908 191.76 152.004 191.52 152.196 191.328C152.4 191.136 152.652 191.04 152.952 191.04C153.24 191.04 153.486 191.136 153.69 191.328C153.894 191.52 153.996 191.76 153.996 192.048C153.996 192.348 153.894 192.6 153.69 192.804C153.486 192.996 153.24 193.092 152.952 193.092ZM152.196 204V195.072H153.708V204H152.196ZM158.915 204L155.531 195.072H157.115L159.797 202.542L162.497 195.072H164.045L160.661 204H158.915ZM169.284 204.216C168.432 204.216 167.676 204.024 167.016 203.64C166.356 203.244 165.834 202.698 165.45 202.002C165.078 201.306 164.892 200.484 164.892 199.536C164.892 198.6 165.078 197.784 165.45 197.088C165.822 196.38 166.338 195.834 166.998 195.45C167.67 195.054 168.444 194.856 169.32 194.856C170.184 194.856 170.928 195.054 171.552 195.45C172.188 195.834 172.674 196.344 173.01 196.98C173.346 197.616 173.514 198.3 173.514 199.032C173.514 199.164 173.508 199.296 173.496 199.428C173.496 199.56 173.496 199.71 173.496 199.878H166.386C166.422 200.562 166.578 201.132 166.854 201.588C167.142 202.032 167.496 202.368 167.916 202.596C168.348 202.824 168.804 202.938 169.284 202.938C169.908 202.938 170.43 202.794 170.85 202.506C171.27 202.218 171.576 201.828 171.768 201.336H173.262C173.022 202.164 172.56 202.854 171.876 203.406C171.204 203.946 170.34 204.216 169.284 204.216ZM169.284 196.134C168.564 196.134 167.922 196.356 167.358 196.8C166.806 197.232 166.488 197.868 166.404 198.708H172.02C171.984 197.904 171.708 197.274 171.192 196.818C170.676 196.362 170.04 196.134 169.284 196.134ZM175.518 204V195.072H176.886L177.012 196.782C177.288 196.194 177.708 195.726 178.272 195.378C178.836 195.03 179.532 194.856 180.36 194.856V196.44H179.946C179.418 196.44 178.932 196.536 178.488 196.728C178.044 196.908 177.69 197.22 177.426 197.664C177.162 198.108 177.03 198.72 177.03 199.5V204H175.518ZM183.029 207.96L185.243 203.136H184.721L181.175 195.072H182.813L185.765 202.02L188.897 195.072H190.463L184.613 207.96H183.029Z" fill="#7E8597"/>
<path d="M149 96H143V102H149V96Z" stroke="white" stroke-width="2" stroke-miterlimit="10" stroke-linecap="round" stroke-linejoin="round"/>
<path d="M115 96H109V102H115V96Z" stroke="white" stroke-width="2" stroke-miterlimit="10" stroke-linecap="round" stroke-linejoin="round"/>
<path d="M132 58H126V64H132V58Z" stroke="white" stroke-width="2" stroke-miterlimit="10" stroke-linecap="round" stroke-linejoin="round"/>
<path d="M146 64C147.657 64 149 62.6569 149 61C149 59.3431 147.657 58 146 58C144.343 58 143 59.3431 143 61C143 62.6569 144.343 64 146 64Z" stroke="white" stroke-width="2" stroke-miterlimit="10" stroke-linecap="round" stroke-linejoin="round"/>
<path d="M112 64C113.657 64 115 62.6569 115 61C115 59.3431 113.657 58 112 58C110.343 58 109 59.3431 109 61C109 62.6569 110.343 64 112 64Z" stroke="white" stroke-width="2" stroke-miterlimit="10" stroke-linecap="round" stroke-linejoin="round"/>
<path d="M146 64V70L142 74" stroke="white" stroke-width="2" stroke-miterlimit="10" stroke-linecap="round" stroke-linejoin="round"/>
<path d="M112 64V70L116 74" stroke="white" stroke-width="2" stroke-miterlimit="10" stroke-linecap="round" stroke-linejoin="round"/>
<path d="M129 64V67" stroke="white" stroke-width="2" stroke-miterlimit="10" stroke-linecap="round" stroke-linejoin="round"/>
<path d="M129 102C130.657 102 132 100.657 132 99C132 97.3431 130.657 96 129 96C127.343 96 126 97.3431 126 99C126 100.657 127.343 102 129 102Z" stroke="white" stroke-width="2" stroke-miterlimit="10" stroke-linecap="round" stroke-linejoin="round"/>
<path d="M146 96V90L142 86" stroke="white" stroke-width="2" stroke-miterlimit="10" stroke-linecap="round" stroke-linejoin="round"/>
<path d="M112 96V90L116 86" stroke="white" stroke-width="2" stroke-miterlimit="10" stroke-linecap="round" stroke-linejoin="round"/>
<path d="M129 96V93" stroke="white" stroke-width="2" stroke-miterlimit="10" stroke-linecap="round" stroke-linejoin="round"/>
<path d="M129 85C131.761 85 134 82.7614 134 80C134 77.2386 131.761 75 129 75C126.239 75 124 77.2386 124 80C124 82.7614 126.239 85 129 85Z" stroke="white" stroke-width="2" stroke-miterlimit="10" stroke-linecap="round" stroke-linejoin="round"/>
<path d="M129 75V72" stroke="white" stroke-width="2" stroke-miterlimit="10" stroke-linecap="round" stroke-linejoin="round"/>
<path d="M125.464 76.464L123.343 74.343" stroke="white" stroke-width="2" stroke-miterlimit="10" stroke-linecap="round" stroke-linejoin="round"/>
<path d="M124 80H121" stroke="white" stroke-width="2" stroke-miterlimit="10" stroke-linecap="round" stroke-linejoin="round"/>
<path d="M125.464 83.536L123.343 85.657" stroke="white" stroke-width="2" stroke-miterlimit="10" stroke-linecap="round" stroke-linejoin="round"/>
<path d="M129 85V88" stroke="white" stroke-width="2" stroke-miterlimit="10" stroke-linecap="round" stroke-linejoin="round"/>
<path d="M132.536 83.536L134.657 85.657" stroke="white" stroke-width="2" stroke-miterlimit="10" stroke-linecap="round" stroke-linejoin="round"/>
<path d="M134 80H137" stroke="white" stroke-width="2" stroke-miterlimit="10" stroke-linecap="round" stroke-linejoin="round"/>
<path d="M132.536 76.464L134.657 74.343" stroke="white" stroke-width="2" stroke-miterlimit="10" stroke-linecap="round" stroke-linejoin="round"/>
</svg>
