<svg width="264" height="262" viewBox="0 0 264 262" fill="none" xmlns="http://www.w3.org/2000/svg">
<rect width="264" height="262" rx="24" fill="#141A25"/>
<rect x="96" y="146" width="72" height="28" rx="14" fill="#FA0369"/>
<path d="M114.681 165.168C113.962 165.168 113.332 165.042 112.791 164.79C112.25 164.538 111.825 164.179 111.517 163.712C111.218 163.245 111.064 162.69 111.055 162.046H112.623C112.632 162.569 112.814 163.012 113.169 163.376C113.524 163.74 114.023 163.922 114.667 163.922C115.236 163.922 115.68 163.787 115.997 163.516C116.324 163.236 116.487 162.881 116.487 162.452C116.487 162.107 116.408 161.827 116.249 161.612C116.1 161.397 115.89 161.22 115.619 161.08C115.358 160.94 115.054 160.814 114.709 160.702C114.364 160.59 114 160.469 113.617 160.338C112.861 160.086 112.292 159.759 111.909 159.358C111.536 158.957 111.349 158.429 111.349 157.776C111.34 157.225 111.466 156.745 111.727 156.334C111.998 155.923 112.371 155.606 112.847 155.382C113.332 155.149 113.897 155.032 114.541 155.032C115.176 155.032 115.731 155.149 116.207 155.382C116.692 155.615 117.07 155.942 117.341 156.362C117.612 156.773 117.752 157.253 117.761 157.804H116.193C116.193 157.552 116.128 157.314 115.997 157.09C115.866 156.857 115.675 156.665 115.423 156.516C115.171 156.367 114.863 156.292 114.499 156.292C114.032 156.283 113.645 156.399 113.337 156.642C113.038 156.885 112.889 157.221 112.889 157.65C112.889 158.033 113.001 158.327 113.225 158.532C113.449 158.737 113.757 158.91 114.149 159.05C114.541 159.181 114.989 159.335 115.493 159.512C115.978 159.671 116.412 159.862 116.795 160.086C117.178 160.31 117.481 160.604 117.705 160.968C117.938 161.332 118.055 161.794 118.055 162.354C118.055 162.849 117.929 163.311 117.677 163.74C117.425 164.16 117.047 164.505 116.543 164.776C116.039 165.037 115.418 165.168 114.681 165.168ZM122.534 165C121.852 165 121.311 164.837 120.91 164.51C120.508 164.174 120.308 163.581 120.308 162.732V159.302H119.118V158.056H120.308L120.49 156.292H121.792V158.056H123.752V159.302H121.792V162.732C121.792 163.115 121.871 163.381 122.03 163.53C122.198 163.67 122.482 163.74 122.884 163.74H123.682V165H122.534ZM128.352 165.168C127.671 165.168 127.064 165.019 126.532 164.72C126.009 164.412 125.599 163.987 125.3 163.446C125.001 162.905 124.852 162.275 124.852 161.556C124.852 160.828 124.997 160.189 125.286 159.638C125.585 159.087 125.995 158.658 126.518 158.35C127.05 158.042 127.666 157.888 128.366 157.888C129.047 157.888 129.64 158.042 130.144 158.35C130.648 158.649 131.04 159.05 131.32 159.554C131.6 160.058 131.74 160.613 131.74 161.22C131.74 161.313 131.735 161.416 131.726 161.528C131.726 161.631 131.721 161.747 131.712 161.878H126.308C126.355 162.55 126.574 163.063 126.966 163.418C127.367 163.763 127.829 163.936 128.352 163.936C128.772 163.936 129.122 163.843 129.402 163.656C129.691 163.46 129.906 163.199 130.046 162.872H131.53C131.343 163.525 130.97 164.071 130.41 164.51C129.859 164.949 129.173 165.168 128.352 165.168ZM128.352 159.106C127.857 159.106 127.419 159.255 127.036 159.554C126.653 159.843 126.42 160.282 126.336 160.87H130.256C130.228 160.329 130.037 159.899 129.682 159.582C129.327 159.265 128.884 159.106 128.352 159.106ZM133.28 168.08V158.056H134.61L134.764 159.134C134.988 158.807 135.296 158.518 135.688 158.266C136.08 158.014 136.584 157.888 137.2 157.888C137.872 157.888 138.464 158.047 138.978 158.364C139.491 158.681 139.892 159.115 140.182 159.666C140.48 160.217 140.63 160.842 140.63 161.542C140.63 162.242 140.48 162.867 140.182 163.418C139.892 163.959 139.491 164.389 138.978 164.706C138.464 165.014 137.867 165.168 137.186 165.168C136.644 165.168 136.164 165.061 135.744 164.846C135.333 164.631 135.006 164.328 134.764 163.936V168.08H133.28ZM136.934 163.88C137.568 163.88 138.091 163.665 138.502 163.236C138.912 162.797 139.118 162.228 139.118 161.528C139.118 161.071 139.024 160.665 138.838 160.31C138.651 159.955 138.394 159.68 138.068 159.484C137.741 159.279 137.363 159.176 136.934 159.176C136.299 159.176 135.776 159.395 135.366 159.834C134.964 160.273 134.764 160.837 134.764 161.528C134.764 162.228 134.964 162.797 135.366 163.236C135.776 163.665 136.299 163.88 136.934 163.88ZM150.284 165V163.04H145.37V161.864L150.046 155.2H151.754V161.752H153.126V163.04H151.754V165H150.284ZM146.98 161.752H150.368V156.838L146.98 161.752Z" fill="white"/>
<path d="M91.8281 204L96.4721 191.4H98.0741L102.7 204H101.098L99.9461 200.76H94.5821L93.4121 204H91.8281ZM95.0321 199.536H99.4961L97.2641 193.308L95.0321 199.536ZM108.041 204.216C107.153 204.216 106.373 204.012 105.701 203.604C105.041 203.196 104.525 202.638 104.153 201.93C103.793 201.222 103.613 200.418 103.613 199.518C103.613 198.618 103.799 197.82 104.171 197.124C104.543 196.416 105.059 195.864 105.719 195.468C106.379 195.06 107.159 194.856 108.059 194.856C108.791 194.856 109.439 195.006 110.003 195.306C110.567 195.606 111.005 196.026 111.317 196.566V191.04H112.829V204H111.461L111.317 202.524C111.029 202.956 110.615 203.346 110.075 203.694C109.535 204.042 108.857 204.216 108.041 204.216ZM108.203 202.902C108.803 202.902 109.331 202.764 109.787 202.488C110.255 202.2 110.615 201.804 110.867 201.3C111.131 200.796 111.263 200.208 111.263 199.536C111.263 198.864 111.131 198.276 110.867 197.772C110.615 197.268 110.255 196.878 109.787 196.602C109.331 196.314 108.803 196.17 108.203 196.17C107.615 196.17 107.087 196.314 106.619 196.602C106.163 196.878 105.803 197.268 105.539 197.772C105.287 198.276 105.161 198.864 105.161 199.536C105.161 200.208 105.287 200.796 105.539 201.3C105.803 201.804 106.163 202.2 106.619 202.488C107.087 202.764 107.615 202.902 108.203 202.902ZM120.057 204V191.04H121.569V204H120.057ZM127.018 204.216C126.274 204.216 125.656 204.09 125.164 203.838C124.672 203.586 124.306 203.25 124.066 202.83C123.826 202.41 123.706 201.954 123.706 201.462C123.706 200.55 124.054 199.848 124.75 199.356C125.446 198.864 126.394 198.618 127.594 198.618H130.006V198.51C130.006 197.73 129.802 197.142 129.394 196.746C128.986 196.338 128.44 196.134 127.756 196.134C127.168 196.134 126.658 196.284 126.226 196.584C125.806 196.872 125.542 197.298 125.434 197.862H123.886C123.946 197.214 124.162 196.668 124.534 196.224C124.918 195.78 125.392 195.444 125.956 195.216C126.52 194.976 127.12 194.856 127.756 194.856C129.004 194.856 129.94 195.192 130.564 195.864C131.2 196.524 131.518 197.406 131.518 198.51V204H130.168L130.078 202.398C129.826 202.902 129.454 203.334 128.962 203.694C128.482 204.042 127.834 204.216 127.018 204.216ZM127.252 202.938C127.828 202.938 128.32 202.788 128.728 202.488C129.148 202.188 129.466 201.798 129.682 201.318C129.898 200.838 130.006 200.334 130.006 199.806V199.788H127.72C126.832 199.788 126.202 199.944 125.83 200.256C125.47 200.556 125.29 200.934 125.29 201.39C125.29 201.858 125.458 202.236 125.794 202.524C126.142 202.8 126.628 202.938 127.252 202.938ZM137.044 204.216C135.988 204.216 135.148 203.898 134.524 203.262C133.9 202.614 133.588 201.624 133.588 200.292V195.072H135.1V200.13C135.1 201.99 135.862 202.92 137.386 202.92C138.166 202.92 138.808 202.644 139.312 202.092C139.828 201.528 140.086 200.73 140.086 199.698V195.072H141.598V204H140.23L140.122 202.398C139.846 202.962 139.432 203.406 138.88 203.73C138.34 204.054 137.728 204.216 137.044 204.216ZM144.087 204V195.072H145.455L145.545 196.674C145.833 196.11 146.247 195.666 146.787 195.342C147.327 195.018 147.939 194.856 148.623 194.856C149.679 194.856 150.519 195.18 151.143 195.828C151.779 196.464 152.097 197.448 152.097 198.78V204H150.585V198.942C150.585 197.082 149.817 196.152 148.281 196.152C147.513 196.152 146.871 196.434 146.355 196.998C145.851 197.55 145.599 198.342 145.599 199.374V204H144.087ZM158.492 204.216C157.64 204.216 156.872 204.024 156.188 203.64C155.516 203.244 154.982 202.698 154.586 202.002C154.202 201.294 154.01 200.472 154.01 199.536C154.01 198.6 154.202 197.784 154.586 197.088C154.982 196.38 155.516 195.834 156.188 195.45C156.872 195.054 157.64 194.856 158.492 194.856C159.548 194.856 160.436 195.132 161.156 195.684C161.888 196.236 162.35 196.974 162.542 197.898H160.994C160.874 197.346 160.58 196.92 160.112 196.62C159.644 196.308 159.098 196.152 158.474 196.152C157.97 196.152 157.496 196.278 157.052 196.53C156.608 196.782 156.248 197.16 155.972 197.664C155.696 198.168 155.558 198.792 155.558 199.536C155.558 200.28 155.696 200.904 155.972 201.408C156.248 201.912 156.608 202.296 157.052 202.56C157.496 202.812 157.97 202.938 158.474 202.938C159.098 202.938 159.644 202.788 160.112 202.488C160.58 202.176 160.874 201.738 160.994 201.174H162.542C162.362 202.074 161.906 202.806 161.174 203.37C160.442 203.934 159.548 204.216 158.492 204.216ZM164.653 204V191.04H166.165V196.602C166.465 196.05 166.891 195.624 167.443 195.324C167.995 195.012 168.595 194.856 169.243 194.856C170.275 194.856 171.103 195.18 171.727 195.828C172.351 196.464 172.663 197.448 172.663 198.78V204H171.169V198.942C171.169 197.082 170.419 196.152 168.919 196.152C168.139 196.152 167.485 196.434 166.957 196.998C166.429 197.55 166.165 198.342 166.165 199.374V204H164.653Z" fill="#7E8597"/>
<path d="M122 60H112V100H122V60Z" stroke="white" stroke-width="2" stroke-miterlimit="10" stroke-linecap="round" stroke-linejoin="round"/>
<path d="M152 75H142V100H152V75Z" stroke="white" stroke-width="2" stroke-miterlimit="10" stroke-linecap="round" stroke-linejoin="round"/>
<path d="M152 60H127V70H152V60Z" stroke="white" stroke-width="2" stroke-miterlimit="10" stroke-linecap="round" stroke-linejoin="round"/>
<path d="M137 90H127V100H137V90Z" stroke="white" stroke-width="2" stroke-miterlimit="10" stroke-linecap="round" stroke-linejoin="round"/>
<path d="M137 75H127V85H137V75Z" stroke="white" stroke-width="2" stroke-miterlimit="10" stroke-linecap="round" stroke-linejoin="round"/>
</svg>
