<svg width="264" height="262" viewBox="0 0 264 262" fill="none" xmlns="http://www.w3.org/2000/svg">
<rect width="264" height="262" rx="24" fill="#141A25"/>
<rect x="99" y="146" width="71" height="28" rx="14" fill="#FA0369"/>
<path d="M117.537 165.168C116.818 165.168 116.188 165.042 115.647 164.79C115.105 164.538 114.681 164.179 114.373 163.712C114.074 163.245 113.92 162.69 113.911 162.046H115.479C115.488 162.569 115.67 163.012 116.025 163.376C116.379 163.74 116.879 163.922 117.523 163.922C118.092 163.922 118.535 163.787 118.853 163.516C119.179 163.236 119.343 162.881 119.343 162.452C119.343 162.107 119.263 161.827 119.105 161.612C118.955 161.397 118.745 161.22 118.475 161.08C118.213 160.94 117.91 160.814 117.565 160.702C117.219 160.59 116.855 160.469 116.473 160.338C115.717 160.086 115.147 159.759 114.765 159.358C114.391 158.957 114.205 158.429 114.205 157.776C114.195 157.225 114.321 156.745 114.583 156.334C114.853 155.923 115.227 155.606 115.703 155.382C116.188 155.149 116.753 155.032 117.397 155.032C118.031 155.032 118.587 155.149 119.063 155.382C119.548 155.615 119.926 155.942 120.197 156.362C120.467 156.773 120.607 157.253 120.617 157.804H119.049C119.049 157.552 118.983 157.314 118.853 157.09C118.722 156.857 118.531 156.665 118.279 156.516C118.027 156.367 117.719 156.292 117.355 156.292C116.888 156.283 116.501 156.399 116.193 156.642C115.894 156.885 115.745 157.221 115.745 157.65C115.745 158.033 115.857 158.327 116.081 158.532C116.305 158.737 116.613 158.91 117.005 159.05C117.397 159.181 117.845 159.335 118.349 159.512C118.834 159.671 119.268 159.862 119.651 160.086C120.033 160.31 120.337 160.604 120.561 160.968C120.794 161.332 120.911 161.794 120.911 162.354C120.911 162.849 120.785 163.311 120.533 163.74C120.281 164.16 119.903 164.505 119.399 164.776C118.895 165.037 118.274 165.168 117.537 165.168ZM125.389 165C124.708 165 124.166 164.837 123.765 164.51C123.364 164.174 123.163 163.581 123.163 162.732V159.302H121.973V158.056H123.163L123.345 156.292H124.647V158.056H126.607V159.302H124.647V162.732C124.647 163.115 124.726 163.381 124.885 163.53C125.053 163.67 125.338 163.74 125.739 163.74H126.537V165H125.389ZM131.207 165.168C130.526 165.168 129.919 165.019 129.387 164.72C128.865 164.412 128.454 163.987 128.155 163.446C127.857 162.905 127.707 162.275 127.707 161.556C127.707 160.828 127.852 160.189 128.141 159.638C128.44 159.087 128.851 158.658 129.373 158.35C129.905 158.042 130.521 157.888 131.221 157.888C131.903 157.888 132.495 158.042 132.999 158.35C133.503 158.649 133.895 159.05 134.175 159.554C134.455 160.058 134.595 160.613 134.595 161.22C134.595 161.313 134.591 161.416 134.581 161.528C134.581 161.631 134.577 161.747 134.567 161.878H129.163C129.21 162.55 129.429 163.063 129.821 163.418C130.223 163.763 130.685 163.936 131.207 163.936C131.627 163.936 131.977 163.843 132.257 163.656C132.547 163.46 132.761 163.199 132.901 162.872H134.385C134.199 163.525 133.825 164.071 133.265 164.51C132.715 164.949 132.029 165.168 131.207 165.168ZM131.207 159.106C130.713 159.106 130.274 159.255 129.891 159.554C129.509 159.843 129.275 160.282 129.191 160.87H133.111C133.083 160.329 132.892 159.899 132.537 159.582C132.183 159.265 131.739 159.106 131.207 159.106ZM136.135 168.08V158.056H137.465L137.619 159.134C137.843 158.807 138.151 158.518 138.543 158.266C138.935 158.014 139.439 157.888 140.055 157.888C140.727 157.888 141.32 158.047 141.833 158.364C142.347 158.681 142.748 159.115 143.037 159.666C143.336 160.217 143.485 160.842 143.485 161.542C143.485 162.242 143.336 162.867 143.037 163.418C142.748 163.959 142.347 164.389 141.833 164.706C141.32 165.014 140.723 165.168 140.041 165.168C139.5 165.168 139.019 165.061 138.599 164.846C138.189 164.631 137.862 164.328 137.619 163.936V168.08H136.135ZM139.789 163.88C140.424 163.88 140.947 163.665 141.357 163.236C141.768 162.797 141.973 162.228 141.973 161.528C141.973 161.071 141.88 160.665 141.693 160.31C141.507 159.955 141.25 159.68 140.923 159.484C140.597 159.279 140.219 159.176 139.789 159.176C139.155 159.176 138.632 159.395 138.221 159.834C137.82 160.273 137.619 160.837 137.619 161.528C137.619 162.228 137.82 162.797 138.221 163.236C138.632 163.665 139.155 163.88 139.789 163.88ZM148.478 165V163.936C149.112 163.432 149.719 162.923 150.298 162.41C150.876 161.897 151.39 161.393 151.838 160.898C152.295 160.394 152.654 159.904 152.916 159.428C153.177 158.943 153.308 158.476 153.308 158.028C153.308 157.729 153.256 157.449 153.154 157.188C153.051 156.917 152.883 156.703 152.65 156.544C152.416 156.376 152.104 156.292 151.712 156.292C151.124 156.292 150.68 156.479 150.382 156.852C150.092 157.225 149.952 157.673 149.962 158.196H148.52C148.529 157.505 148.674 156.927 148.954 156.46C149.243 155.993 149.626 155.639 150.102 155.396C150.587 155.153 151.133 155.032 151.74 155.032C152.664 155.032 153.401 155.293 153.952 155.816C154.512 156.329 154.792 157.048 154.792 157.972C154.792 158.523 154.656 159.069 154.386 159.61C154.124 160.151 153.779 160.674 153.35 161.178C152.93 161.673 152.477 162.139 151.992 162.578C151.506 163.017 151.044 163.413 150.606 163.768H155.086V165H148.478Z" fill="white"/>
<path d="M45.8782 204.216C44.9542 204.216 44.1502 204.048 43.4662 203.712C42.7822 203.376 42.2542 202.908 41.8822 202.308C41.5102 201.708 41.3242 201.012 41.3242 200.22H42.9082C42.9082 200.712 43.0222 201.168 43.2502 201.588C43.4782 201.996 43.8082 202.326 44.2402 202.578C44.6842 202.818 45.2302 202.938 45.8782 202.938C46.7302 202.938 47.3902 202.734 47.8582 202.326C48.3262 201.918 48.5602 201.408 48.5602 200.796C48.5602 200.292 48.4522 199.89 48.2362 199.59C48.0202 199.278 47.7262 199.026 47.3542 198.834C46.9942 198.642 46.5742 198.474 46.0942 198.33C45.6262 198.186 45.1342 198.024 44.6182 197.844C43.6462 197.508 42.9262 197.094 42.4582 196.602C41.9902 196.098 41.7562 195.444 41.7562 194.64C41.7442 193.968 41.9002 193.374 42.2242 192.858C42.5482 192.33 43.0042 191.922 43.5922 191.634C44.1922 191.334 44.9002 191.184 45.7162 191.184C46.5202 191.184 47.2162 191.334 47.8042 191.634C48.4042 191.934 48.8662 192.348 49.1902 192.876C49.5262 193.404 49.7002 194.004 49.7122 194.676H48.1282C48.1282 194.328 48.0382 193.986 47.8582 193.65C47.6782 193.302 47.4022 193.02 47.0302 192.804C46.6702 192.588 46.2142 192.48 45.6622 192.48C44.9782 192.468 44.4142 192.642 43.9702 193.002C43.5382 193.362 43.3222 193.86 43.3222 194.496C43.3222 195.036 43.4722 195.45 43.7722 195.738C44.0842 196.026 44.5162 196.266 45.0682 196.458C45.6202 196.638 46.2562 196.848 46.9762 197.088C47.5762 197.304 48.1162 197.556 48.5962 197.844C49.0762 198.132 49.4482 198.504 49.7122 198.96C49.9882 199.416 50.1262 199.998 50.1262 200.706C50.1262 201.306 49.9702 201.876 49.6582 202.416C49.3462 202.944 48.8722 203.376 48.2362 203.712C47.6122 204.048 46.8262 204.216 45.8782 204.216ZM56.1945 204.216C55.3425 204.216 54.5865 204.024 53.9265 203.64C53.2665 203.244 52.7445 202.698 52.3605 202.002C51.9885 201.306 51.8025 200.484 51.8025 199.536C51.8025 198.6 51.9885 197.784 52.3605 197.088C52.7325 196.38 53.2485 195.834 53.9085 195.45C54.5805 195.054 55.3545 194.856 56.2305 194.856C57.0945 194.856 57.8385 195.054 58.4625 195.45C59.0985 195.834 59.5845 196.344 59.9205 196.98C60.2565 197.616 60.4245 198.3 60.4245 199.032C60.4245 199.164 60.4185 199.296 60.4065 199.428C60.4065 199.56 60.4065 199.71 60.4065 199.878H53.2965C53.3325 200.562 53.4885 201.132 53.7645 201.588C54.0525 202.032 54.4065 202.368 54.8265 202.596C55.2585 202.824 55.7145 202.938 56.1945 202.938C56.8185 202.938 57.3405 202.794 57.7605 202.506C58.1805 202.218 58.4865 201.828 58.6785 201.336H60.1725C59.9325 202.164 59.4705 202.854 58.7865 203.406C58.1145 203.946 57.2505 204.216 56.1945 204.216ZM56.1945 196.134C55.4745 196.134 54.8325 196.356 54.2685 196.8C53.7165 197.232 53.3985 197.868 53.3145 198.708H58.9305C58.8945 197.904 58.6185 197.274 58.1025 196.818C57.5865 196.362 56.9505 196.134 56.1945 196.134ZM66.4425 204.216C65.5905 204.216 64.8345 204.024 64.1745 203.64C63.5145 203.244 62.9925 202.698 62.6085 202.002C62.2365 201.306 62.0505 200.484 62.0505 199.536C62.0505 198.6 62.2365 197.784 62.6085 197.088C62.9805 196.38 63.4965 195.834 64.1565 195.45C64.8285 195.054 65.6025 194.856 66.4785 194.856C67.3425 194.856 68.0865 195.054 68.7105 195.45C69.3465 195.834 69.8325 196.344 70.1685 196.98C70.5045 197.616 70.6725 198.3 70.6725 199.032C70.6725 199.164 70.6665 199.296 70.6545 199.428C70.6545 199.56 70.6545 199.71 70.6545 199.878H63.5445C63.5805 200.562 63.7365 201.132 64.0125 201.588C64.3005 202.032 64.6545 202.368 65.0745 202.596C65.5065 202.824 65.9625 202.938 66.4425 202.938C67.0665 202.938 67.5885 202.794 68.0085 202.506C68.4285 202.218 68.7345 201.828 68.9265 201.336H70.4205C70.1805 202.164 69.7185 202.854 69.0345 203.406C68.3625 203.946 67.4985 204.216 66.4425 204.216ZM66.4425 196.134C65.7225 196.134 65.0805 196.356 64.5165 196.8C63.9645 197.232 63.6465 197.868 63.5625 198.708H69.1785C69.1425 197.904 68.8665 197.274 68.3505 196.818C67.8345 196.362 67.1985 196.134 66.4425 196.134ZM78.3582 193.092C78.0582 193.092 77.8062 192.996 77.6022 192.804C77.4102 192.6 77.3142 192.348 77.3142 192.048C77.3142 191.76 77.4102 191.52 77.6022 191.328C77.8062 191.136 78.0582 191.04 78.3582 191.04C78.6462 191.04 78.8922 191.136 79.0962 191.328C79.3002 191.52 79.4022 191.76 79.4022 192.048C79.4022 192.348 79.3002 192.6 79.0962 192.804C78.8922 192.996 78.6462 193.092 78.3582 193.092ZM77.6022 204V195.072H79.1142V204H77.6022ZM82.2329 204V196.35H80.8829V195.072H82.2329V193.524C82.2329 192.66 82.4489 192.03 82.8809 191.634C83.3129 191.238 83.9429 191.04 84.7709 191.04H85.6709V192.336H85.0049C84.5489 192.336 84.2249 192.432 84.0329 192.624C83.8409 192.804 83.7449 193.116 83.7449 193.56V195.072H85.9409V196.35H83.7449V204H82.2329ZM96.5727 204.216C95.7327 204.216 94.9767 204.024 94.3047 203.64C93.6327 203.256 93.0987 202.716 92.7027 202.02C92.3187 201.312 92.1267 200.484 92.1267 199.536C92.1267 198.588 92.3247 197.766 92.7207 197.07C93.1167 196.362 93.6507 195.816 94.3227 195.432C95.0067 195.048 95.7687 194.856 96.6087 194.856C97.4487 194.856 98.2047 195.048 98.8767 195.432C99.5487 195.816 100.077 196.362 100.461 197.07C100.857 197.766 101.055 198.588 101.055 199.536C101.055 200.484 100.857 201.312 100.461 202.02C100.065 202.716 99.5247 203.256 98.8407 203.64C98.1687 204.024 97.4127 204.216 96.5727 204.216ZM96.5727 202.92C97.0887 202.92 97.5687 202.794 98.0127 202.542C98.4567 202.29 98.8167 201.912 99.0927 201.408C99.3687 200.904 99.5067 200.28 99.5067 199.536C99.5067 198.792 99.3687 198.168 99.0927 197.664C98.8287 197.16 98.4747 196.782 98.0307 196.53C97.5867 196.278 97.1127 196.152 96.6087 196.152C96.0927 196.152 95.6127 196.278 95.1687 196.53C94.7247 196.782 94.3647 197.16 94.0887 197.664C93.8127 198.168 93.6747 198.792 93.6747 199.536C93.6747 200.28 93.8127 200.904 94.0887 201.408C94.3647 201.912 94.7187 202.29 95.1507 202.542C95.5947 202.794 96.0687 202.92 96.5727 202.92ZM106.415 204.216C105.359 204.216 104.519 203.898 103.895 203.262C103.271 202.614 102.959 201.624 102.959 200.292V195.072H104.471V200.13C104.471 201.99 105.233 202.92 106.757 202.92C107.537 202.92 108.179 202.644 108.683 202.092C109.199 201.528 109.457 200.73 109.457 199.698V195.072H110.969V204H109.601L109.493 202.398C109.217 202.962 108.803 203.406 108.251 203.73C107.711 204.054 107.099 204.216 106.415 204.216ZM113.458 204V195.072H114.826L114.952 196.782C115.228 196.194 115.648 195.726 116.212 195.378C116.776 195.03 117.472 194.856 118.3 194.856V196.44H117.886C117.358 196.44 116.872 196.536 116.428 196.728C115.984 196.908 115.63 197.22 115.366 197.664C115.102 198.108 114.97 198.72 114.97 199.5V204H113.458ZM128.829 204.216C127.989 204.216 127.233 204.024 126.561 203.64C125.889 203.256 125.355 202.716 124.959 202.02C124.575 201.312 124.383 200.484 124.383 199.536C124.383 198.588 124.581 197.766 124.977 197.07C125.373 196.362 125.907 195.816 126.579 195.432C127.263 195.048 128.025 194.856 128.865 194.856C129.705 194.856 130.461 195.048 131.133 195.432C131.805 195.816 132.333 196.362 132.717 197.07C133.113 197.766 133.311 198.588 133.311 199.536C133.311 200.484 133.113 201.312 132.717 202.02C132.321 202.716 131.781 203.256 131.097 203.64C130.425 204.024 129.669 204.216 128.829 204.216ZM128.829 202.92C129.345 202.92 129.825 202.794 130.269 202.542C130.713 202.29 131.073 201.912 131.349 201.408C131.625 200.904 131.763 200.28 131.763 199.536C131.763 198.792 131.625 198.168 131.349 197.664C131.085 197.16 130.731 196.782 130.287 196.53C129.843 196.278 129.369 196.152 128.865 196.152C128.349 196.152 127.869 196.278 127.425 196.53C126.981 196.782 126.621 197.16 126.345 197.664C126.069 198.168 125.931 198.792 125.931 199.536C125.931 200.28 126.069 200.904 126.345 201.408C126.621 201.912 126.975 202.29 127.407 202.542C127.851 202.794 128.325 202.92 128.829 202.92ZM135.899 204V196.35H134.549V195.072H135.899V193.524C135.899 192.66 136.115 192.03 136.547 191.634C136.979 191.238 137.609 191.04 138.437 191.04H139.337V192.336H138.671C138.215 192.336 137.891 192.432 137.699 192.624C137.507 192.804 137.411 193.116 137.411 193.56V195.072H139.607V196.35H137.411V204H135.899ZM141.893 204V196.35H140.543V195.072H141.893V193.524C141.893 192.66 142.109 192.03 142.541 191.634C142.973 191.238 143.603 191.04 144.431 191.04H145.331V192.336H144.665C144.209 192.336 143.885 192.432 143.693 192.624C143.501 192.804 143.405 193.116 143.405 193.56V195.072H145.601V196.35H143.405V204H141.893ZM151.064 204.216C150.212 204.216 149.456 204.024 148.796 203.64C148.136 203.244 147.614 202.698 147.23 202.002C146.858 201.306 146.672 200.484 146.672 199.536C146.672 198.6 146.858 197.784 147.23 197.088C147.602 196.38 148.118 195.834 148.778 195.45C149.45 195.054 150.224 194.856 151.1 194.856C151.964 194.856 152.708 195.054 153.332 195.45C153.968 195.834 154.454 196.344 154.79 196.98C155.126 197.616 155.294 198.3 155.294 199.032C155.294 199.164 155.288 199.296 155.276 199.428C155.276 199.56 155.276 199.71 155.276 199.878H148.166C148.202 200.562 148.358 201.132 148.634 201.588C148.922 202.032 149.276 202.368 149.696 202.596C150.128 202.824 150.584 202.938 151.064 202.938C151.688 202.938 152.21 202.794 152.63 202.506C153.05 202.218 153.356 201.828 153.548 201.336H155.042C154.802 202.164 154.34 202.854 153.656 203.406C152.984 203.946 152.12 204.216 151.064 204.216ZM151.064 196.134C150.344 196.134 149.702 196.356 149.138 196.8C148.586 197.232 148.268 197.868 148.184 198.708H153.8C153.764 197.904 153.488 197.274 152.972 196.818C152.456 196.362 151.82 196.134 151.064 196.134ZM157.298 204V195.072H158.666L158.792 196.782C159.068 196.194 159.488 195.726 160.052 195.378C160.616 195.03 161.312 194.856 162.14 194.856V196.44H161.726C161.198 196.44 160.712 196.536 160.268 196.728C159.824 196.908 159.47 197.22 159.206 197.664C158.942 198.108 158.81 198.72 158.81 199.5V204H157.298ZM169.518 193.092C169.218 193.092 168.966 192.996 168.762 192.804C168.57 192.6 168.474 192.348 168.474 192.048C168.474 191.76 168.57 191.52 168.762 191.328C168.966 191.136 169.218 191.04 169.518 191.04C169.806 191.04 170.052 191.136 170.256 191.328C170.46 191.52 170.562 191.76 170.562 192.048C170.562 192.348 170.46 192.6 170.256 192.804C170.052 192.996 169.806 193.092 169.518 193.092ZM168.762 204V195.072H170.274V204H168.762ZM176.327 204.216C175.259 204.216 174.371 203.946 173.663 203.406C172.955 202.866 172.541 202.134 172.421 201.21H173.969C174.065 201.678 174.311 202.086 174.707 202.434C175.115 202.77 175.661 202.938 176.345 202.938C176.981 202.938 177.449 202.806 177.749 202.542C178.049 202.266 178.199 201.942 178.199 201.57C178.199 201.03 178.001 200.67 177.605 200.49C177.221 200.31 176.675 200.148 175.967 200.004C175.487 199.908 175.007 199.77 174.527 199.59C174.047 199.41 173.645 199.158 173.321 198.834C172.997 198.498 172.835 198.06 172.835 197.52C172.835 196.74 173.123 196.104 173.699 195.612C174.287 195.108 175.079 194.856 176.075 194.856C177.023 194.856 177.797 195.096 178.397 195.576C179.009 196.044 179.363 196.716 179.459 197.592H177.965C177.905 197.136 177.707 196.782 177.371 196.53C177.047 196.266 176.609 196.134 176.057 196.134C175.517 196.134 175.097 196.248 174.797 196.476C174.509 196.704 174.365 197.004 174.365 197.376C174.365 197.736 174.551 198.018 174.923 198.222C175.307 198.426 175.823 198.6 176.471 198.744C177.023 198.864 177.545 199.014 178.037 199.194C178.541 199.362 178.949 199.62 179.261 199.968C179.585 200.304 179.747 200.796 179.747 201.444C179.759 202.248 179.453 202.914 178.829 203.442C178.217 203.958 177.383 204.216 176.327 204.216ZM186.671 204V195.072H188.039L188.165 196.782C188.441 196.194 188.861 195.726 189.425 195.378C189.989 195.03 190.685 194.856 191.513 194.856V196.44H191.099C190.571 196.44 190.085 196.536 189.641 196.728C189.197 196.908 188.843 197.22 188.579 197.664C188.315 198.108 188.183 198.72 188.183 199.5V204H186.671ZM194.128 193.092C193.828 193.092 193.576 192.996 193.372 192.804C193.18 192.6 193.084 192.348 193.084 192.048C193.084 191.76 193.18 191.52 193.372 191.328C193.576 191.136 193.828 191.04 194.128 191.04C194.416 191.04 194.662 191.136 194.866 191.328C195.07 191.52 195.172 191.76 195.172 192.048C195.172 192.348 195.07 192.6 194.866 192.804C194.662 192.996 194.416 193.092 194.128 193.092ZM193.372 204V195.072H194.884V204H193.372ZM201.044 201.192C200.54 201.192 200.078 201.126 199.658 200.994L198.758 201.84C198.89 201.936 199.052 202.02 199.244 202.092C199.448 202.152 199.736 202.212 200.108 202.272C200.48 202.32 201.002 202.374 201.674 202.434C202.874 202.518 203.732 202.794 204.248 203.262C204.764 203.73 205.022 204.342 205.022 205.098C205.022 205.614 204.878 206.106 204.59 206.574C204.314 207.042 203.882 207.426 203.294 207.726C202.718 208.026 201.974 208.176 201.062 208.176C200.258 208.176 199.544 208.068 198.92 207.852C198.296 207.648 197.81 207.33 197.462 206.898C197.114 206.478 196.94 205.944 196.94 205.296C196.94 204.96 197.03 204.594 197.21 204.198C197.39 203.814 197.726 203.448 198.218 203.1C197.954 202.992 197.726 202.878 197.534 202.758C197.354 202.626 197.186 202.482 197.03 202.326V201.912L198.56 200.4C197.852 199.8 197.498 199.008 197.498 198.024C197.498 197.436 197.636 196.902 197.912 196.422C198.188 195.942 198.59 195.564 199.118 195.288C199.646 195 200.288 194.856 201.044 194.856C201.56 194.856 202.028 194.928 202.448 195.072H205.742V196.206L204.068 196.278C204.416 196.782 204.59 197.364 204.59 198.024C204.59 198.612 204.446 199.146 204.158 199.626C203.882 200.106 203.48 200.49 202.952 200.778C202.436 201.054 201.8 201.192 201.044 201.192ZM201.044 199.95C201.68 199.95 202.184 199.788 202.556 199.464C202.94 199.128 203.132 198.648 203.132 198.024C203.132 197.412 202.94 196.944 202.556 196.62C202.184 196.284 201.68 196.116 201.044 196.116C200.396 196.116 199.88 196.284 199.496 196.62C199.124 196.944 198.938 197.412 198.938 198.024C198.938 198.648 199.124 199.128 199.496 199.464C199.88 199.788 200.396 199.95 201.044 199.95ZM198.416 205.152C198.416 205.752 198.668 206.196 199.172 206.484C199.676 206.784 200.306 206.934 201.062 206.934C201.806 206.934 202.4 206.772 202.844 206.448C203.3 206.124 203.528 205.692 203.528 205.152C203.528 204.768 203.372 204.432 203.06 204.144C202.748 203.868 202.172 203.706 201.332 203.658C200.672 203.61 200.102 203.55 199.622 203.478C199.13 203.742 198.806 204.024 198.65 204.324C198.494 204.636 198.416 204.912 198.416 205.152ZM207.448 204V191.04H208.96V196.602C209.26 196.05 209.686 195.624 210.238 195.324C210.79 195.012 211.39 194.856 212.038 194.856C213.07 194.856 213.898 195.18 214.522 195.828C215.146 196.464 215.458 197.448 215.458 198.78V204H213.964V198.942C213.964 197.082 213.214 196.152 211.714 196.152C210.934 196.152 210.28 196.434 209.752 196.998C209.224 197.55 208.96 198.342 208.96 199.374V204H207.448ZM221.277 204C220.461 204 219.819 203.802 219.351 203.406C218.883 203.01 218.649 202.296 218.649 201.264V196.35H217.101V195.072H218.649L218.847 192.93H220.161V195.072H222.789V196.35H220.161V201.264C220.161 201.828 220.275 202.212 220.503 202.416C220.731 202.608 221.133 202.704 221.709 202.704H222.645V204H221.277ZM104.874 227V219.35H103.524V218.072H104.874V216.524C104.874 215.66 105.09 215.03 105.522 214.634C105.954 214.238 106.584 214.04 107.412 214.04H108.312V215.336H107.646C107.19 215.336 106.866 215.432 106.674 215.624C106.482 215.804 106.386 216.116 106.386 216.56V218.072H108.582V219.35H106.386V227H104.874ZM114.098 227.216C113.258 227.216 112.502 227.024 111.83 226.64C111.158 226.256 110.624 225.716 110.228 225.02C109.844 224.312 109.652 223.484 109.652 222.536C109.652 221.588 109.85 220.766 110.246 220.07C110.642 219.362 111.176 218.816 111.848 218.432C112.532 218.048 113.294 217.856 114.134 217.856C114.974 217.856 115.73 218.048 116.402 218.432C117.074 218.816 117.602 219.362 117.986 220.07C118.382 220.766 118.58 221.588 118.58 222.536C118.58 223.484 118.382 224.312 117.986 225.02C117.59 225.716 117.05 226.256 116.366 226.64C115.694 227.024 114.938 227.216 114.098 227.216ZM114.098 225.92C114.614 225.92 115.094 225.794 115.538 225.542C115.982 225.29 116.342 224.912 116.618 224.408C116.894 223.904 117.032 223.28 117.032 222.536C117.032 221.792 116.894 221.168 116.618 220.664C116.354 220.16 116 219.782 115.556 219.53C115.112 219.278 114.638 219.152 114.134 219.152C113.618 219.152 113.138 219.278 112.694 219.53C112.25 219.782 111.89 220.16 111.614 220.664C111.338 221.168 111.2 221.792 111.2 222.536C111.2 223.28 111.338 223.904 111.614 224.408C111.89 224.912 112.244 225.29 112.676 225.542C113.12 225.794 113.594 225.92 114.098 225.92ZM120.682 227V218.072H122.05L122.176 219.782C122.452 219.194 122.872 218.726 123.436 218.378C124 218.03 124.696 217.856 125.524 217.856V219.44H125.11C124.582 219.44 124.096 219.536 123.652 219.728C123.208 219.908 122.854 220.22 122.59 220.664C122.326 221.108 122.194 221.72 122.194 222.5V227H120.682ZM132.957 230.96L135.171 226.136H134.649L131.103 218.072H132.741L135.693 225.02L138.825 218.072H140.391L134.541 230.96H132.957ZM145.211 227.216C144.371 227.216 143.615 227.024 142.943 226.64C142.271 226.256 141.737 225.716 141.341 225.02C140.957 224.312 140.765 223.484 140.765 222.536C140.765 221.588 140.963 220.766 141.359 220.07C141.755 219.362 142.289 218.816 142.961 218.432C143.645 218.048 144.407 217.856 145.247 217.856C146.087 217.856 146.843 218.048 147.515 218.432C148.187 218.816 148.715 219.362 149.099 220.07C149.495 220.766 149.693 221.588 149.693 222.536C149.693 223.484 149.495 224.312 149.099 225.02C148.703 225.716 148.163 226.256 147.479 226.64C146.807 227.024 146.051 227.216 145.211 227.216ZM145.211 225.92C145.727 225.92 146.207 225.794 146.651 225.542C147.095 225.29 147.455 224.912 147.731 224.408C148.007 223.904 148.145 223.28 148.145 222.536C148.145 221.792 148.007 221.168 147.731 220.664C147.467 220.16 147.113 219.782 146.669 219.53C146.225 219.278 145.751 219.152 145.247 219.152C144.731 219.152 144.251 219.278 143.807 219.53C143.363 219.782 143.003 220.16 142.727 220.664C142.451 221.168 142.313 221.792 142.313 222.536C142.313 223.28 142.451 223.904 142.727 224.408C143.003 224.912 143.357 225.29 143.789 225.542C144.233 225.794 144.707 225.92 145.211 225.92ZM155.054 227.216C153.998 227.216 153.158 226.898 152.534 226.262C151.91 225.614 151.598 224.624 151.598 223.292V218.072H153.11V223.13C153.11 224.99 153.872 225.92 155.396 225.92C156.176 225.92 156.818 225.644 157.322 225.092C157.838 224.528 158.096 223.73 158.096 222.698V218.072H159.608V227H158.24L158.132 225.398C157.856 225.962 157.442 226.406 156.89 226.73C156.35 227.054 155.738 227.216 155.054 227.216Z" fill="#7E8597"/>
<path d="M120 60H112V68H120V60Z" stroke="white" stroke-width="2" stroke-miterlimit="10" stroke-linecap="round" stroke-linejoin="round"/>
<path d="M120 76H112V84H120V76Z" stroke="white" stroke-width="2" stroke-miterlimit="10" stroke-linecap="round" stroke-linejoin="round"/>
<path d="M120 92H112V100H120V92Z" stroke="white" stroke-width="2" stroke-miterlimit="10" stroke-linecap="round" stroke-linejoin="round"/>
<path d="M136 60H128V68H136V60Z" stroke="white" stroke-width="2" stroke-miterlimit="10" stroke-linecap="round" stroke-linejoin="round"/>
<path d="M136 76H128V84H136V76Z" stroke="white" stroke-width="2" stroke-miterlimit="10" stroke-linecap="round" stroke-linejoin="round"/>
<path d="M136 92H128V100H136V92Z" stroke="white" stroke-width="2" stroke-miterlimit="10" stroke-linecap="round" stroke-linejoin="round"/>
<path d="M152 60H144V68H152V60Z" stroke="white" stroke-width="2" stroke-miterlimit="10" stroke-linecap="round" stroke-linejoin="round"/>
<path d="M152 76H144V84H152V76Z" stroke="white" stroke-width="2" stroke-miterlimit="10" stroke-linecap="round" stroke-linejoin="round"/>
<path d="M152 92H144V100H152V92Z" stroke="white" stroke-width="2" stroke-miterlimit="10" stroke-linecap="round" stroke-linejoin="round"/>
</svg>
